<?xml version="1.0" encoding="us-ascii" standalone="no"?><svg xmlns="http://www.w3.org/2000/svg" xmlns:xlink="http://www.w3.org/1999/xlink" contentStyleType="text/css" height="661px" preserveAspectRatio="none" style="width:574px;height:661px;background:#FFFFFF;" version="1.1" viewBox="0 0 574 661" width="574px" zoomAndPan="magnify"><defs/><g><text fill="#000000" font-family="sans-serif" font-size="14" font-weight="bold" lengthAdjust="spacing" textLength="267" x="152.25" y="33.5352">Data Ingestion (ARCHER2 to JASMIN)</text><ellipse cx="178.5" cy="57.4883" fill="#222222" rx="10" ry="10" style="stroke:#222222;stroke-width:1.0;"/><path d="M296,121.4883 L296,177.4199 L469,177.4199 L469,131.4883 L459,121.4883 L296,121.4883 " fill="#FEFFDD" style="stroke:#181818;stroke-width:0.5;"/><path d="M459,121.4883 L459,131.4883 L469,131.4883 L459,121.4883 " fill="#FEFFDD" style="stroke:#181818;stroke-width:0.5;"/><text fill="#000000" font-family="sans-serif" font-size="13" lengthAdjust="spacing" textLength="148" x="302" y="139.0566">Existing data is defined</text><text fill="#000000" font-family="sans-serif" font-size="13" lengthAdjust="spacing" textLength="115" x="318.5" y="154.3672">in aggregation file</text><text fill="#0000FF" font-family="sans-serif" font-size="13" lengthAdjust="spacing" textLength="73" x="341.5" y="169.6777">ThusFar.cfa</text><rect fill="#F1F1F1" height="34.1328" rx="12.5" ry="12.5" style="stroke:#181818;stroke-width:0.5;" width="195" x="81" y="132.3877"/><text fill="#000000" font-family="sans-serif" font-size="12" lengthAdjust="spacing" textLength="175" x="91" y="153.9893">cycle of data arrives at JASMIN</text><rect fill="#F1F1F1" height="62.3984" rx="12.5" ry="12.5" style="stroke:#181818;stroke-width:0.5;" width="161" x="98" y="197.4199"/><text fill="#000000" font-family="sans-serif" font-size="12" lengthAdjust="spacing" textLength="137" x="108" y="219.0215">CFA scanning generates</text><text fill="#000000" font-family="sans-serif" font-size="12" lengthAdjust="spacing" textLength="75" x="143" y="233.1543">cycle CFA file</text><text fill="#0000FF" font-family="sans-serif" font-size="12" lengthAdjust="spacing" textLength="49" x="154" y="247.2871">cycle.cfa</text><rect fill="#F1F1F1" height="48.2656" rx="12.5" ry="12.5" style="stroke:#181818;stroke-width:0.5;" width="253" x="52" y="279.8184"/><text fill="#000000" font-family="sans-serif" font-size="12" lengthAdjust="spacing" textLength="233" x="62" y="301.4199">Existing data aggregation file is updated</text><text fill="#0000FF" font-family="sans-serif" font-size="12" lengthAdjust="spacing" textLength="232" x="62.5" y="315.5527">Thusfar.cfa = cfa(ThusFar.cfa, cycle.cfa)</text><rect fill="#F1F1F1" height="34.1328" rx="12.5" ry="12.5" style="stroke:#181818;stroke-width:0.5;" width="166" x="95.5" y="348.084"/><text fill="#000000" font-family="sans-serif" font-size="12" lengthAdjust="spacing" textLength="146" x="105.5" y="369.6855">cycle data moved to tape</text><rect fill="#F1F1F1" height="48.2656" rx="12.5" ry="12.5" style="stroke:#181818;stroke-width:0.5;" width="335" x="11" y="402.2168"/><text fill="#000000" font-family="sans-serif" font-size="12" lengthAdjust="spacing" textLength="315" x="21" y="423.8184">Aggregation file updated for new location of cycle data</text><text fill="#0000FF" font-family="sans-serif" font-size="12" lengthAdjust="spacing" textLength="199" x="79" y="437.9512">Thusfar.cfa=updated(ThusFar.cfa)</text><path d="M319.5,460.4824 L319.5,499.7588 L299.5,503.7588 L319.5,507.7588 L319.5,547.0352 A0,0 0 0 0 319.5,547.0352 L536.5,547.0352 A0,0 0 0 0 536.5,547.0352 L536.5,470.4824 L526.5,460.4824 L319.5,460.4824 A0,0 0 0 0 319.5,460.4824 " fill="#FEFFDD" style="stroke:#181818;stroke-width:0.5;"/><path d="M526.5,460.4824 L526.5,470.4824 L536.5,470.4824 L526.5,460.4824 " fill="#FEFFDD" style="stroke:#181818;stroke-width:0.5;"/><text fill="#000000" font-family="sans-serif" font-size="13" lengthAdjust="spacing" textLength="192" x="325.5" y="478.0508">cfstore aggregation files cover</text><text fill="#000000" font-family="sans-serif" font-size="13" lengthAdjust="spacing" textLength="82" x="341" y="493.3613">same data as</text><text fill="#0000FF" font-family="sans-serif" font-size="13" lengthAdjust="spacing" textLength="71" x="427" y="493.3613">Thusfar.cfa</text><text fill="#000000" font-family="sans-serif" font-size="13" lengthAdjust="spacing" textLength="4" x="498" y="493.3613">,</text><text fill="#000000" font-family="sans-serif" font-size="13" lengthAdjust="spacing" textLength="148" x="347.5" y="508.6719">but are broken into one</text><text fill="#000000" font-family="sans-serif" font-size="13" lengthAdjust="spacing" textLength="160" x="326.5" y="523.9824">file per frequency and are</text><text fill="#000000" font-family="sans-serif" font-size="13" font-style="italic" lengthAdjust="spacing" textLength="26" x="490.5" y="523.9824">also</text><text fill="#000000" font-family="sans-serif" font-size="13" lengthAdjust="spacing" textLength="139" x="354" y="539.293">user facing on JASMIN</text><rect fill="#F1F1F1" height="48.2656" rx="12.5" ry="12.5" style="stroke:#181818;stroke-width:0.5;" width="242" x="57.5" y="479.626"/><text fill="#000000" font-family="sans-serif" font-size="12" lengthAdjust="spacing" textLength="184" x="84.5" y="501.2275">Update cfstore aggregation files</text><text fill="#000000" font-family="sans-serif" font-size="12" lengthAdjust="spacing" textLength="4" x="67.5" y="515.3604">&#160;</text><text fill="#0000FF" font-family="sans-serif" font-size="12" lengthAdjust="spacing" textLength="97" x="71.5" y="515.3604">UserFacingF1.cfa</text><text fill="#000000" font-family="sans-serif" font-size="12" lengthAdjust="spacing" textLength="4" x="168.5" y="515.3604">,</text><text fill="#0000FF" font-family="sans-serif" font-size="12" lengthAdjust="spacing" textLength="97" x="176.5" y="515.3604">UserFacingF2.cfa</text><text fill="#000000" font-family="sans-serif" font-size="12" lengthAdjust="spacing" textLength="12" x="277.5" y="515.3604">...</text><rect fill="#F1F1F1" height="34.1328" rx="12.5" ry="12.5" style="stroke:#181818;stroke-width:0.5;" width="124" x="116.5" y="567.0352"/><text fill="#000000" font-family="sans-serif" font-size="12" lengthAdjust="spacing" textLength="100" x="130.5" y="588.6367">wait for new data</text><polygon fill="#F1F1F1" points="178.5,87.4883,190.5,99.4883,178.5,111.4883,166.5,99.4883,178.5,87.4883" style="stroke:#181818;stroke-width:0.5;"/><line style="stroke:#181818;stroke-width:1.0;" x1="178.5" x2="178.5" y1="166.5205" y2="197.4199"/><polygon fill="#181818" points="174.5,187.4199,178.5,197.4199,182.5,187.4199,178.5,191.4199" style="stroke:#181818;stroke-width:1.0;"/><line style="stroke:#181818;stroke-width:1.0;" x1="178.5" x2="178.5" y1="259.8184" y2="279.8184"/><polygon fill="#181818" points="174.5,269.8184,178.5,279.8184,182.5,269.8184,178.5,273.8184" style="stroke:#181818;stroke-width:1.0;"/><line style="stroke:#181818;stroke-width:1.0;" x1="178.5" x2="178.5" y1="328.084" y2="348.084"/><polygon fill="#181818" points="174.5,338.084,178.5,348.084,182.5,338.084,178.5,342.084" style="stroke:#181818;stroke-width:1.0;"/><line style="stroke:#181818;stroke-width:1.0;" x1="178.5" x2="178.5" y1="382.2168" y2="402.2168"/><polygon fill="#181818" points="174.5,392.2168,178.5,402.2168,182.5,392.2168,178.5,396.2168" style="stroke:#181818;stroke-width:1.0;"/><line style="stroke:#181818;stroke-width:1.0;" x1="178.5" x2="178.5" y1="450.4824" y2="479.626"/><polygon fill="#181818" points="174.5,469.626,178.5,479.626,182.5,469.626,178.5,473.626" style="stroke:#181818;stroke-width:1.0;"/><line style="stroke:#181818;stroke-width:1.0;" x1="178.5" x2="178.5" y1="527.8916" y2="567.0352"/><polygon fill="#181818" points="174.5,557.0352,178.5,567.0352,182.5,557.0352,178.5,561.0352" style="stroke:#181818;stroke-width:1.0;"/><line style="stroke:#181818;stroke-width:1.0;" x1="178.5" x2="178.5" y1="111.4883" y2="132.3877"/><polygon fill="#181818" points="174.5,122.3877,178.5,132.3877,182.5,122.3877,178.5,126.3877" style="stroke:#181818;stroke-width:1.0;"/><line style="stroke:#181818;stroke-width:1.0;" x1="178.5" x2="178.5" y1="601.168" y2="649.168"/><line style="stroke:#181818;stroke-width:1.0;" x1="178.5" x2="548.5" y1="649.168" y2="649.168"/><polygon fill="#181818" points="544.5,370.3281,548.5,360.3281,552.5,370.3281,548.5,366.3281" style="stroke:#181818;stroke-width:1.0;"/><line style="stroke:#181818;stroke-width:1.0;" x1="548.5" x2="548.5" y1="99.4883" y2="649.168"/><line style="stroke:#181818;stroke-width:1.0;" x1="548.5" x2="190.5" y1="99.4883" y2="99.4883"/><polygon fill="#181818" points="200.5,95.4883,190.5,99.4883,200.5,103.4883,196.5,99.4883" style="stroke:#181818;stroke-width:1.0;"/><line style="stroke:#181818;stroke-width:1.0;" x1="178.5" x2="178.5" y1="67.4883" y2="87.4883"/><polygon fill="#181818" points="174.5,77.4883,178.5,87.4883,182.5,77.4883,178.5,81.4883" style="stroke:#181818;stroke-width:1.0;"/><!--SRC=[TP9DJ-Cm48Rl_XLp10brjHoJKYagL0lIxe656vUfCmuMwJZO4px-_OxTR0cWNdpmsCyyVZtYfIUuH46uvewI-C1mqjokVrtTdeC4k6d-_hx-SshIa-S18-xWaXoElTpHcpIzxtX7BB3MXQ99Wb5Cf85GJ6NVhSA3WpRpCKR_GWbG9cXjN1zGF7V0GGYYxnx5NBtvLFRA9P-W9UUPMZ2U0RikKeV5qdc5cwKDVOZLjXzfTVSufWt6XNLeYDizrLJhJGF98dEcTiGKKTJZWM4lcEiPzi1pMAbbL6sgpqxV95Ho7BH4xMT4zd5x7xW0NKzcXcTmw71Q_y-gy7VXHP-hsGiEfANcQx-f6RWGWUaL-c3tLOtwWtFKvMAwFxV92lTbMpsJX4ZVdbaIcoFl4yKDMirbypCpbZzASNLsxDJv_1Gi5elQp3x-U5-hWKGm2NTJGfZWoDi-7Cns59qvWcqCJyJWMHCDh0DHCXoKw28zZyJs7L2d9PzT-XNsAO0PKwuNRRqq3UnXg4m5h-Zby05Pglu7]--></g></svg>