<?xml version="1.0" encoding="us-ascii" standalone="no"?><svg xmlns="http://www.w3.org/2000/svg" xmlns:xlink="http://www.w3.org/1999/xlink" contentStyleType="text/css" height="783px" preserveAspectRatio="none" style="width:490px;height:783px;background:#FFFFFF;" version="1.1" viewBox="0 0 490 783" width="490px" zoomAndPan="magnify"><defs/><g><text fill="#000000" font-family="sans-serif" font-size="14" font-weight="bold" lengthAdjust="spacing" textLength="203" x="142.25" y="33.5352">Managing data on GWS Disk</text><ellipse cx="131.5" cy="57.4883" fill="#222222" rx="10" ry="10" style="stroke:#222222;stroke-width:1.0;"/><rect fill="#F1F1F1" height="62.3984" rx="12.5" ry="12.5" style="stroke:#181818;stroke-width:0.5;" width="230" x="16.5" y="87.4883"/><text fill="#000000" font-family="sans-serif" font-size="12" lengthAdjust="spacing" textLength="210" x="26.5" y="109.0898">user queries cfstore and needs data</text><text fill="#000000" font-family="sans-serif" font-size="12" lengthAdjust="spacing" textLength="163" x="48" y="123.2227">currently on tape on GS disk</text><text fill="#000000" font-family="sans-serif" font-size="12" lengthAdjust="spacing" textLength="111" x="51.5" y="137.3555">(defines new quark</text><text fill="#0000FF" font-family="sans-serif" font-size="12" lengthAdjust="spacing" textLength="41" x="166.5" y="137.3555">nquark</text><text fill="#000000" font-family="sans-serif" font-size="12" lengthAdjust="spacing" textLength="4" x="207.5" y="137.3555">)</text><path d="M267.5,216.0215 L267.5,302.5742 L454.5,302.5742 L454.5,226.0215 L444.5,216.0215 L267.5,216.0215 " fill="#FEFFDD" style="stroke:#181818;stroke-width:0.5;"/><path d="M444.5,216.0215 L444.5,226.0215 L454.5,226.0215 L444.5,216.0215 " fill="#FEFFDD" style="stroke:#181818;stroke-width:0.5;"/><text fill="#000000" font-family="sans-serif" font-size="13" lengthAdjust="spacing" textLength="162" x="273.5" y="233.5898">these tasks must be done</text><text fill="#000000" font-family="sans-serif" font-size="13" lengthAdjust="spacing" textLength="124" x="294.5" y="248.9004">by a cache manager</text><text fill="#000000" font-family="sans-serif" font-size="13" lengthAdjust="spacing" textLength="97" x="308" y="264.2109">(human or tool)</text><text fill="#000000" font-family="sans-serif" font-size="13" lengthAdjust="spacing" textLength="118" x="295.5" y="279.5215">(No tool exist or is</text><text fill="#000000" font-family="sans-serif" font-size="13" lengthAdjust="spacing" textLength="114" x="299.5" y="294.832">currently planned)</text><rect fill="#F1F1F1" height="48.2656" rx="12.5" ry="12.5" style="stroke:#181818;stroke-width:0.5;" width="232" x="15.5" y="235.165"/><text fill="#000000" font-family="sans-serif" font-size="12" lengthAdjust="spacing" textLength="208" x="29.5" y="256.7666">new quark to be removed identified</text><text fill="#000000" font-family="sans-serif" font-size="12" lengthAdjust="spacing" textLength="4" x="106.5" y="270.8994">(</text><text fill="#0000FF" font-family="sans-serif" font-size="12" lengthAdjust="spacing" textLength="42" x="110.5" y="270.8994">dquark</text><text fill="#000000" font-family="sans-serif" font-size="12" lengthAdjust="spacing" textLength="4" x="152.5" y="270.8994">)</text><rect fill="#F1F1F1" height="34.1328" rx="12.5" ry="12.5" style="stroke:#181818;stroke-width:0.5;" width="114" x="74.5" y="322.5742"/><text fill="#000000" font-family="sans-serif" font-size="12" lengthAdjust="spacing" textLength="4" x="84.5" y="344.1758">&#160;</text><text fill="#0000FF" font-family="sans-serif" font-size="12" lengthAdjust="spacing" textLength="42" x="88.5" y="344.1758">dquark</text><text fill="#000000" font-family="sans-serif" font-size="12" lengthAdjust="spacing" textLength="44" x="134.5" y="344.1758">deleted</text><path d="M272,372.874 L272,396.8398 L252,400.8398 L272,404.8398 L272,428.8057 A0,0 0 0 0 272,428.8057 L432,428.8057 A0,0 0 0 0 432,428.8057 L432,382.874 L422,372.874 L272,372.874 A0,0 0 0 0 272,372.874 " fill="#FEFFDD" style="stroke:#181818;stroke-width:0.5;"/><path d="M422,372.874 L422,382.874 L432,382.874 L422,372.874 " fill="#FEFFDD" style="stroke:#181818;stroke-width:0.5;"/><text fill="#000000" font-family="sans-serif" font-size="13" lengthAdjust="spacing" textLength="139" x="278" y="390.4424">NB: All data on GWS is</text><text fill="#000000" font-family="sans-serif" font-size="13" lengthAdjust="spacing" textLength="134" x="280.5" y="405.7529">a replicant of data on</text><text fill="#000000" font-family="sans-serif" font-size="13" lengthAdjust="spacing" textLength="31" x="332" y="421.0635">tape!</text><rect fill="#F1F1F1" height="48.2656" rx="12.5" ry="12.5" style="stroke:#181818;stroke-width:0.5;" width="241" x="11" y="376.707"/><text fill="#000000" font-family="sans-serif" font-size="12" lengthAdjust="spacing" textLength="217" x="25" y="398.3086">Update (remove dquark replicants) in</text><text fill="#0000FF" font-family="sans-serif" font-size="12" lengthAdjust="spacing" textLength="97" x="22.5" y="412.4414">UserFacingF1.cfa</text><text fill="#000000" font-family="sans-serif" font-size="12" lengthAdjust="spacing" textLength="4" x="119.5" y="412.4414">,</text><text fill="#0000FF" font-family="sans-serif" font-size="12" lengthAdjust="spacing" textLength="97" x="127.5" y="412.4414">UserFacingF2.cfa</text><text fill="#000000" font-family="sans-serif" font-size="12" lengthAdjust="spacing" textLength="12" x="228.5" y="412.4414">...</text><polygon fill="#F1F1F1" points="95,169.8867,168,169.8867,180,181.8867,168,193.8867,95,193.8867,83,181.8867,95,169.8867" style="stroke:#181818;stroke-width:0.5;"/><text fill="#000000" font-family="sans-serif" font-size="11" lengthAdjust="spacing" textLength="14" x="135.5" y="204.5215">no</text><text fill="#000000" font-family="sans-serif" font-size="11" lengthAdjust="spacing" textLength="73" x="95" y="186.0439">space on disk</text><text fill="#000000" font-family="sans-serif" font-size="11" lengthAdjust="spacing" textLength="18" x="180" y="179.5664">yes</text><polygon fill="#F1F1F1" points="131.5,448.8057,143.5,460.8057,131.5,472.8057,119.5,460.8057,131.5,448.8057" style="stroke:#181818;stroke-width:0.5;"/><path d="M233,482.8057 L233,569.3584 L422,569.3584 L422,492.8057 L412,482.8057 L233,482.8057 " fill="#FEFFDD" style="stroke:#181818;stroke-width:0.5;"/><path d="M412,482.8057 L412,492.8057 L422,492.8057 L412,482.8057 " fill="#FEFFDD" style="stroke:#181818;stroke-width:0.5;"/><text fill="#000000" font-family="sans-serif" font-size="13" lengthAdjust="spacing" textLength="164" x="239" y="500.374">this task must be done by</text><text fill="#000000" font-family="sans-serif" font-size="13" lengthAdjust="spacing" textLength="105" x="270.5" y="515.6846">a cache manager</text><text fill="#000000" font-family="sans-serif" font-size="13" lengthAdjust="spacing" textLength="97" x="274.5" y="530.9951">(human or tool)</text><text fill="#000000" font-family="sans-serif" font-size="13" lengthAdjust="spacing" textLength="125" x="258.5" y="546.3057">(No tool exists or is</text><text fill="#000000" font-family="sans-serif" font-size="13" lengthAdjust="spacing" textLength="114" x="266" y="561.6162">currently planned)</text><rect fill="#F1F1F1" height="62.3984" rx="12.5" ry="12.5" style="stroke:#181818;stroke-width:0.5;" width="163" x="50" y="494.8828"/><text fill="#000000" font-family="sans-serif" font-size="12" lengthAdjust="spacing" textLength="21" x="71.5" y="516.4844">tool</text><text fill="#000000" font-family="sans-serif" font-size="12" font-style="italic" lengthAdjust="spacing" textLength="37" x="96.5" y="516.4844">copies</text><text fill="#000000" font-family="sans-serif" font-size="12" lengthAdjust="spacing" textLength="58" x="137.5" y="516.4844">fragments</text><text fill="#000000" font-family="sans-serif" font-size="12" lengthAdjust="spacing" textLength="98" x="60" y="530.6172">corresponding to</text><text fill="#0000FF" font-family="sans-serif" font-size="12" lengthAdjust="spacing" textLength="41" x="162" y="530.6172">nquark</text><text fill="#000000" font-family="sans-serif" font-size="12" lengthAdjust="spacing" textLength="129" x="67" y="544.75">from tape to GWS disk</text><rect fill="#F1F1F1" height="62.3984" rx="12.5" ry="12.5" style="stroke:#181818;stroke-width:0.5;" width="238" x="12.5" y="589.3584"/><text fill="#000000" font-family="sans-serif" font-size="12" lengthAdjust="spacing" textLength="153" x="34.5" y="610.96">fragments correspoding to</text><text fill="#0000FF" font-family="sans-serif" font-size="12" lengthAdjust="spacing" textLength="41" x="191.5" y="610.96">nquark</text><text fill="#000000" font-family="sans-serif" font-size="12" lengthAdjust="spacing" textLength="198" x="30.5" y="625.0928">updated with replicant locations in</text><text fill="#0000FF" font-family="sans-serif" font-size="12" lengthAdjust="spacing" textLength="97" x="22.5" y="639.2256">UserFacingF1.cfa</text><text fill="#000000" font-family="sans-serif" font-size="12" lengthAdjust="spacing" textLength="4" x="119.5" y="639.2256">,</text><text fill="#0000FF" font-family="sans-serif" font-size="12" lengthAdjust="spacing" textLength="97" x="127.5" y="639.2256">UserFacingF2.cfa</text><text fill="#000000" font-family="sans-serif" font-size="12" lengthAdjust="spacing" textLength="12" x="228.5" y="639.2256">...</text><path d="M249.5,661.7568 L249.5,732.999 L462.5,732.999 L462.5,671.7568 L452.5,661.7568 L249.5,661.7568 " fill="#FEFFDD" style="stroke:#181818;stroke-width:0.5;"/><path d="M452.5,661.7568 L452.5,671.7568 L462.5,671.7568 L452.5,661.7568 " fill="#FEFFDD" style="stroke:#181818;stroke-width:0.5;"/><text fill="#000000" font-family="sans-serif" font-size="13" lengthAdjust="spacing" textLength="161" x="269" y="679.3252">Note the assumption that</text><text fill="#000000" font-family="sans-serif" font-size="13" lengthAdjust="spacing" textLength="109" x="258.5" y="694.6357">we do not update</text><text fill="#0000FF" font-family="sans-serif" font-size="13" lengthAdjust="spacing" textLength="73" x="371.5" y="694.6357">ThusFar.cfa</text><text fill="#000000" font-family="sans-serif" font-size="13" lengthAdjust="spacing" textLength="192" x="255.5" y="709.9463">for the fragment management.</text><text fill="#000000" font-family="sans-serif" font-size="13" lengthAdjust="spacing" textLength="115" x="294" y="725.2568">Needs discussion!</text><rect fill="#F1F1F1" height="34.1328" rx="12.5" ry="12.5" style="stroke:#181818;stroke-width:0.5;" width="196" x="33.5" y="680.3115"/><text fill="#000000" font-family="sans-serif" font-size="12" lengthAdjust="spacing" textLength="172" x="47.5" y="701.9131">user accesses data via cfa file</text><ellipse cx="131.5" cy="762.999" fill="none" rx="10" ry="10" style="stroke:#222222;stroke-width:1.5;"/><line style="stroke:#222222;stroke-width:2.5;" x1="125.3128" x2="137.6872" y1="756.8118" y2="769.1862"/><line style="stroke:#222222;stroke-width:2.5;" x1="137.6872" x2="125.3128" y1="756.8118" y2="769.1862"/><line style="stroke:#181818;stroke-width:1.0;" x1="131.5" x2="131.5" y1="67.4883" y2="87.4883"/><polygon fill="#181818" points="127.5,77.4883,131.5,87.4883,135.5,77.4883,131.5,81.4883" style="stroke:#181818;stroke-width:1.0;"/><line style="stroke:#181818;stroke-width:1.0;" x1="131.5" x2="131.5" y1="283.4307" y2="322.5742"/><polygon fill="#181818" points="127.5,312.5742,131.5,322.5742,135.5,312.5742,131.5,316.5742" style="stroke:#181818;stroke-width:1.0;"/><line style="stroke:#181818;stroke-width:1.0;" x1="131.5" x2="131.5" y1="356.707" y2="376.707"/><polygon fill="#181818" points="127.5,366.707,131.5,376.707,135.5,366.707,131.5,370.707" style="stroke:#181818;stroke-width:1.0;"/><line style="stroke:#181818;stroke-width:1.0;" x1="131.5" x2="131.5" y1="193.8867" y2="235.165"/><polygon fill="#181818" points="127.5,225.165,131.5,235.165,135.5,225.165,131.5,229.165" style="stroke:#181818;stroke-width:1.0;"/><line style="stroke:#181818;stroke-width:1.0;" x1="180" x2="464.5" y1="181.8867" y2="181.8867"/><polygon fill="#181818" points="460.5,314.3301,464.5,324.3301,468.5,314.3301,464.5,318.3301" style="stroke:#181818;stroke-width:1.0;"/><line style="stroke:#181818;stroke-width:1.0;" x1="464.5" x2="464.5" y1="181.8867" y2="460.8057"/><line style="stroke:#181818;stroke-width:1.0;" x1="464.5" x2="143.5" y1="460.8057" y2="460.8057"/><polygon fill="#181818" points="153.5,456.8057,143.5,460.8057,153.5,464.8057,149.5,460.8057" style="stroke:#181818;stroke-width:1.0;"/><line style="stroke:#181818;stroke-width:1.0;" x1="131.5" x2="131.5" y1="424.9727" y2="448.8057"/><polygon fill="#181818" points="127.5,438.8057,131.5,448.8057,135.5,438.8057,131.5,442.8057" style="stroke:#181818;stroke-width:1.0;"/><line style="stroke:#181818;stroke-width:1.0;" x1="131.5" x2="131.5" y1="149.8867" y2="169.8867"/><polygon fill="#181818" points="127.5,159.8867,131.5,169.8867,135.5,159.8867,131.5,163.8867" style="stroke:#181818;stroke-width:1.0;"/><line style="stroke:#181818;stroke-width:1.0;" x1="131.5" x2="131.5" y1="472.8057" y2="494.8828"/><polygon fill="#181818" points="127.5,484.8828,131.5,494.8828,135.5,484.8828,131.5,488.8828" style="stroke:#181818;stroke-width:1.0;"/><line style="stroke:#181818;stroke-width:1.0;" x1="131.5" x2="131.5" y1="557.2813" y2="589.3584"/><polygon fill="#181818" points="127.5,579.3584,131.5,589.3584,135.5,579.3584,131.5,583.3584" style="stroke:#181818;stroke-width:1.0;"/><line style="stroke:#181818;stroke-width:1.0;" x1="131.5" x2="131.5" y1="651.7568" y2="680.3115"/><polygon fill="#181818" points="127.5,670.3115,131.5,680.3115,135.5,670.3115,131.5,674.3115" style="stroke:#181818;stroke-width:1.0;"/><line style="stroke:#181818;stroke-width:1.0;" x1="131.5" x2="131.5" y1="714.4443" y2="752.999"/><polygon fill="#181818" points="127.5,742.999,131.5,752.999,135.5,742.999,131.5,746.999" style="stroke:#181818;stroke-width:1.0;"/><!--SRC=[hLJ1Rjim3BtpAxYR0mmfjcCI1EXMPAVbqXOxCn8L2v4bJvIRvkz7EGlg30ks0RiOj4m-yhr7MGu-zfIfmmTsD8JonA_bFlXzx3WM_AmFpb1y2OnVATBUnprQAeGfufTlZ_ZWvG1IA1TO3C8Plm-SFGiQ9oLbHeeM8xELiGpCaBE2XbC5ADJp2FI8Ld4G6ilEHwsEV5GaoWTScHHINkp2mEiu7gtkngFrR0dUOICzcH6bGiomj1onER7C4823C3OnpM0nWIm9TuoPk_J25htLURpp6a8pxMP_xUP2eb85YAbelT-t1RITjYWa1y5ka5AHROgCi3iXeI7JCdPLETMnQGSDCMKT8OKPDDiqHiYlNalrt0jE9Ee3nSXs1bn5rAPAu_Q4Q3bmORlKhETUrLRgPv9uJbJAVV26Ob5nV8GfrBDwjo6Zx3OVviRH1VGztiZwECt2-No-X8aisqyBl0_XQbMy0BsDWCbTlaBTWtTl93LGOvN5gCtAhqtgTQLMTtwDBjE-hcRLAQbEqYVDLa_KrDkh0YwdxhnkcbU7gSjoor4reHfwxQVQ2V_cf_oTeM-CBeJ-p0TX60ssUFIbdOWQab52AOhwY__Tu0MELvoCOH4-tsXyyIgB8tG-yEyLtTPGBmgIoD3rTJvzfO9mhEBML3ppkPhbgHraGtaw1hYgjI9THFjfHGtdi3t_PhoOGKIRNA_K3m00]--></g></svg>